<svg xmlns="http://www.w3.org/2000/svg" xmlns:xlink="http://www.w3.org/1999/xlink" width="20" height="20" viewBox="0 0 20 20"><defs><path id="34g8a" d="M502.806 506.645h-1.612v4.703a8.4 8.4 0 0 1-7.541-7.542h4.702v-1.612h-4.702a8.4 8.4 0 0 1 7.54-7.541v4.702h1.613v-4.702a8.4 8.4 0 0 1 7.541 7.54h-4.702v1.613h4.703a8.4 8.4 0 0 1-7.542 7.541zM502 493c-5.514 0-10 4.486-10 10s4.486 10 10 10 10-4.486 10-10-4.486-10-10-10z"/></defs><g><g opacity=".8" transform="translate(-492 -493)"><use fill="#431c5d" xlink:href="#34g8a"/></g></g></svg>