<svg xmlns="http://www.w3.org/2000/svg" xmlns:xlink="http://www.w3.org/1999/xlink" width="26" height="26" viewBox="0 0 26 26"><defs><path id="h0fza" d="M164.094 25.593c-.066-.067-.133-.133-.066-.4v-.401l.066-.067.067-.067 5.133-2.937c.2-.134.534-.067.667.2.133.2.067.534-.2.668l-4.4 2.537 4.4 2.537c.267.133.333.4.2.667-.133.2-.267.267-.467.267-.133 0-.2 0-.266-.066zm25.267-.472c0 .066 0 .066.133.266v.134l-.2.2-5.133 2.933c-.067.067-.2.067-.267.067-.2 0-.4-.134-.466-.267-.134-.2-.067-.533.2-.667l4.4-2.533-4.4-2.533c-.267-.134-.334-.4-.2-.667.133-.267.4-.333.666-.2l5.134 2.933.066.067.067.067v.2zm-3.257-13c.267.2.267.466.134.666l-18.41 24.4c-.067.134-.267.2-.4.2a.51.51 0 0 1-.334-.133c-.2-.133-.2-.467-.066-.667l18.41-24.4c.133-.2.466-.266.666-.066z"/><linearGradient id="h0fzb" x1="189.49" x2="164" y1="24.7" y2="24.7" gradientUnits="userSpaceOnUse"><stop offset="0" stop-color="#7e00e8"/><stop offset=".54" stop-color="#ff1876"/><stop offset="1" stop-color="#bb0cb2"/></linearGradient></defs><g><g transform="translate(-164 -12)"><use fill="url(#h0fzb)" xlink:href="#h0fza"/></g></g></svg>