<svg xmlns="http://www.w3.org/2000/svg" xmlns:xlink="http://www.w3.org/1999/xlink" width="21" height="16" viewBox="0 0 21 16"><defs><path id="ery5a" d="M850.348 31.205a.764.764 0 0 1-.746-.745c0-.398.348-.746.746-.746.397 0 .745.348.745.746a.764.764 0 0 1-.745.745zm-8.293 0c-.4 0-.75-.348-.75-.745 0-.398.35-.746.75-.746s.75.348.75.746c0 .397-.35.745-.75.745zm11.572-11.876l-1.341 6.51h-12.174l-1.391-6.51zm-1.043 7.255c.05 0 .1 0 .149-.05h.05c.05 0 .05-.05.05-.05s0-.05.049-.05l.05-.049v-.1l1.49-7.254v-.1-.049-.05s0-.05-.05-.05c0 0 0-.05-.049-.05l-.1-.098s-.05 0-.05-.05h-.049H838.571l-.496-2.286v-.05c0-.05 0-.05-.05-.05 0 0 0-.049-.05-.049l-.1-.1s-.049 0-.049-.049h-.1H834.398a.392.392 0 0 0-.397.398c0 .248.15.397.398.397h2.98l1.939 9.143a1.925 1.925 0 0 0-1.49 1.888 1.94 1.94 0 0 0 1.937 1.938h.944c-.149.199-.199.447-.199.745 0 .845.646 1.491 1.491 1.491.845 0 1.49-.646 1.49-1.49 0-.25-.099-.547-.198-.746h5.714c-.149.199-.199.447-.199.745 0 .845.646 1.491 1.491 1.491.845 0 1.49-.646 1.49-1.49 0-.25-.099-.547-.198-.746h.944c.199 0 .398-.15.398-.398 0-.248-.15-.397-.398-.397h-12.72a1.21 1.21 0 0 1-1.193-1.193 1.21 1.21 0 0 1 1.193-1.192z"/><radialGradient id="ery5b" cx="850.33" cy="28.25" r="14.61" gradientUnits="userSpaceOnUse"><stop offset="0" stop-color="#7e00e8"/><stop offset=".4" stop-color="#ff1876"/><stop offset="1" stop-color="#bb0cb2"/></radialGradient></defs><g><g transform="translate(-834 -16)"><use fill="url(#ery5b)" xlink:href="#ery5a"/></g></g></svg>