<svg xmlns="http://www.w3.org/2000/svg" xmlns:xlink="http://www.w3.org/1999/xlink" width="47" height="47" viewBox="0 0 47 47"><defs><path id="84fka" d="M574 199v-47h47v47zm1-2a1 1 0 0 0 1 1h43a1 1 0 0 0 1-1v-43a1 1 0 0 0-1-1h-43a1 1 0 0 0-1 1z"/><path id="84fkb" d="M575 154a1 1 0 0 1 1-1h43a1 1 0 0 1 1 1v43a1 1 0 0 1-1 1h-43a1 1 0 0 1-1-1z"/><clipPath id="84fkc"><use fill="#fff" xlink:href="#84fka"/></clipPath></defs><g><g transform="translate(-574 -152)"><use fill="#f3f3f3" xlink:href="#84fkb"/><use fill="#fff" fill-opacity="0" stroke="#e3e3e3" stroke-miterlimit="50" stroke-width="2" clip-path="url(&quot;#84fkc&quot;)" xlink:href="#84fkb"/></g></g></svg>